<?xml version="1.0" encoding="utf-8"?>
<svg fill="#000000" width="800px" height="800px" viewBox="-0.5 0 16 16" id="settings-16px"
  xmlns="http://www.w3.org/2000/svg">
  <path id="Path_39" data-name="Path 39"
    d="M-493.35-320H-494.7a1.865,1.865,0,0,1-1.863-1.862v-.626a.186.186,0,0,0-.091-.159l-.676-.394a.184.184,0,0,0-.183,0l-.539.311a1.845,1.845,0,0,1-1.414.186,1.855,1.855,0,0,1-1.133-.869l-.679-1.18a1.867,1.867,0,0,1,.68-2.541l.548-.316a.186.186,0,0,0,.092-.16v-.78a.186.186,0,0,0-.092-.16l-.547-.316a1.866,1.866,0,0,1-.681-2.541l.679-1.18a1.855,1.855,0,0,1,1.133-.869,1.837,1.837,0,0,1,1.414.187l.538.31a.181.181,0,0,0,.184,0l.676-.394a.186.186,0,0,0,.091-.159v-.626A1.865,1.865,0,0,1-494.7-336h1.353a1.865,1.865,0,0,1,1.864,1.862v.626a.187.187,0,0,0,.09.159l.677.394a.179.179,0,0,0,.183,0l.538-.311a1.841,1.841,0,0,1,1.415-.186,1.85,1.85,0,0,1,1.132.869l.679,1.18a1.866,1.866,0,0,1-.68,2.541l-.548.316a.186.186,0,0,0-.092.16v.78a.186.186,0,0,0,.092.16l.547.316a1.865,1.865,0,0,1,.681,2.541l-.679,1.18a1.85,1.85,0,0,1-1.132.869,1.842,1.842,0,0,1-1.415-.187l-.537-.31a.186.186,0,0,0-.184,0l-.677.394a.187.187,0,0,0-.09.159v.626A1.865,1.865,0,0,1-493.35-320Zm-4.076-4.063a1.185,1.185,0,0,1,.6.161l.676.4a1.181,1.181,0,0,1,.586,1.019v.626a.866.866,0,0,0,.866.865h1.353a.867.867,0,0,0,.867-.865v-.626a1.183,1.183,0,0,1,.585-1.019l.676-.4a1.185,1.185,0,0,1,1.186,0l.537.31a.849.849,0,0,0,.658.087.854.854,0,0,0,.525-.4l.68-1.179a.868.868,0,0,0-.317-1.181l-.546-.317a1.183,1.183,0,0,1-.59-1.022v-.78a1.183,1.183,0,0,1,.59-1.022h0l.547-.317a.868.868,0,0,0,.316-1.181l-.68-1.179a.854.854,0,0,0-.525-.4.871.871,0,0,0-.658.086l-.538.311a1.176,1.176,0,0,1-1.185,0l-.676-.4a1.183,1.183,0,0,1-.585-1.019v-.626a.867.867,0,0,0-.867-.865H-494.7a.866.866,0,0,0-.866.865v.626a1.181,1.181,0,0,1-.586,1.019l-.676.4a1.181,1.181,0,0,1-1.186,0l-.536-.31a.862.862,0,0,0-.658-.087.856.856,0,0,0-.526.4l-.68,1.179a.868.868,0,0,0,.317,1.181l.546.317a1.183,1.183,0,0,1,.59,1.022v.78a1.183,1.183,0,0,1-.59,1.022l-.547.317a.868.868,0,0,0-.316,1.181l.68,1.179a.856.856,0,0,0,.526.4.853.853,0,0,0,.658-.086l.537-.311A1.172,1.172,0,0,1-497.426-324.063Zm3.417-.711A3.23,3.23,0,0,1-497.235-328a3.23,3.23,0,0,1,3.226-3.226A3.23,3.23,0,0,1-490.782-328,3.23,3.23,0,0,1-494.009-324.774Zm0-5.455A2.232,2.232,0,0,0-496.238-328a2.232,2.232,0,0,0,2.229,2.229A2.233,2.233,0,0,0-491.778-328,2.233,2.233,0,0,0-494.009-330.229Z"
    transform="translate(501.528 336)" />
</svg>